<?xml version="1.0" standalone="no"?>
<!DOCTYPE svg PUBLIC "-//W3C//DTD SVG 20010904//EN"
 "http://www.w3.org/TR/2001/REC-SVG-20010904/DTD/svg10.dtd">
<svg version="1.0" xmlns="http://www.w3.org/2000/svg"
 width="1025.000000pt" height="1025.000000pt" viewBox="0 0 1025.000000 1025.000000"
 preserveAspectRatio="xMidYMid meet">
<metadata>
Created by potrace 1.14, written by Peter Selinger 2001-2017
</metadata>
<g transform="translate(0.000000,1025.000000) scale(0.100000,-0.100000)"
fill="#000000" stroke="none">
<path d="M742 7428 c-6 -6 -12 -20 -12 -29 0 -15 757 -1386 782 -1416 8 -10
172 -13 757 -13 583 0 751 -3 763 -12 25 -21 60 -87 54 -103 -5 -13 -103 -15
-746 -15 -515 0 -740 -3 -740 -11 0 -12 590 -1078 655 -1184 74 -120 178 -201
315 -248 64 -22 72 -22 839 -25 716 -3 775 -2 792 14 11 9 19 23 19 29 0 11
-1376 2482 -1493 2680 -83 143 -226 260 -381 312 l-81 28 -755 3 c-589 2 -758
0 -768 -10z"/>
<path d="M8010 7424 c-152 -32 -327 -149 -413 -277 -33 -49 -1482 -2634 -1515
-2704 -14 -30 -14 -34 3 -53 18 -20 28 -20 764 -20 827 0 823 0 960 65 56 27
92 53 145 109 67 68 91 109 404 672 182 330 332 605 332 612 0 9 -172 12 -740
12 -614 0 -742 2 -746 14 -6 15 31 84 55 104 11 9 179 12 763 12 l748 0 24 38
c58 88 766 1374 766 1390 0 42 7 42 -755 41 -583 0 -743 -3 -795 -15z"/>
<path d="M5125 5920 c-14 -5 -160 -259 -440 -760 -231 -414 -424 -762 -429
-774 -7 -19 61 -147 414 -782 232 -417 429 -767 438 -776 24 -28 58 -22 85 15
38 51 847 1512 846 1528 0 8 -192 358 -427 778 -286 511 -434 766 -447 771
-11 4 -29 4 -40 0z"/>
</g>
</svg>
